<svg xmlns="http://www.w3.org/2000/svg" viewBox="0 0 24 24">
  <!-- Weißer Hintergrund -->
  <rect width="24" height="24" fill="white"/>
  
  <!-- Lautsprecher -->
  <path d="M3 9v6h4l5 5V4L7 9H3z" fill="#333"/>
  
  <!-- Zahnrad rechts unten vom Lautsprecher -->
  <path d="M19.5 12c0-.23-.01-.45-.03-.68l1.86-1.41c.4-.3.51-.86.26-1.3l-1.87-3.23c-.25-.44-.79-.62-1.25-.42l-2.15.91c-.37-.26-.76-.49-1.17-.68l-.29-2.31C14.8 2.38 14.37 2 13.87 2h-3.73c-.5 0-.93.38-.98.88l-.29 2.31c-.41.19-.8.42-1.17.68l-2.15-.91c-.46-.2-1-.02-1.25.42L2.43 8.61c-.25.44-.14.99.26 1.3l1.86 1.41c-.02.22-.03.44-.03.68s.01.45.03.68l-1.86 1.41c-.4.3-.51.86-.26 1.3l1.87 3.23c.25.44.79.62 1.25.42l2.15-.91c.37.26.76.49 1.17.68l.29 2.31c.05.5.48.88.98.88h3.73c.5 0 .93-.38.98-.88l.29-2.31c.41-.19.8-.42 1.17-.68l2.15.91c.46.2 1 .02 1.25-.42l1.87-3.23c.25-.44.14-.99-.26-1.3l-1.86-1.41c.02-.23.03-.45.03-.68zm-7.5 2c-1.1 0-2-.9-2-2s.9-2 2-2 2 .9 2 2-.9 2-2 2z" fill="#333" transform="translate(11, 6) scale(0.5)"/>
</svg>
