<svg viewBox="0 0 72 72" xmlns="http://www.w3.org/2000/svg">
  <!-- Abstract screen content -->
  <rect x="20" y="20" width="32" height="32" rx="2" fill="#2c3e50" stroke="#ecf0f1" stroke-width="1"/>
  
  <!-- Sample screen elements -->
  <rect x="24" y="24" width="10" height="6" rx="1" fill="#3498db"/>
  <rect x="36" y="24" width="12" height="3" rx="1" fill="#ecf0f1"/>
  <rect x="36" y="29" width="8" height="3" rx="1" fill="#ecf0f1"/>
  <rect x="24" y="34" width="20" height="2" rx="1" fill="#ecf0f1"/>
  <rect x="24" y="38" width="16" height="2" rx="1" fill="#ecf0f1"/>
  <rect x="24" y="42" width="18" height="2" rx="1" fill="#ecf0f1"/>
  <rect x="24" y="46" width="12" height="2" rx="1" fill="#ecf0f1"/>
  
  <!-- Corner brackets (screenshot selection) -->
  <!-- Top-left corner -->
  <path d="M12 12 L12 22 M12 12 L22 12" stroke="#f39c12" stroke-width="4" stroke-linecap="round" fill="none"/>
  
  <!-- Top-right corner -->
  <path d="M60 12 L60 22 M60 12 L50 12" stroke="#f39c12" stroke-width="4" stroke-linecap="round" fill="none"/>
  
  <!-- Bottom-left corner -->
  <path d="M12 60 L12 50 M12 60 L22 60" stroke="#f39c12" stroke-width="4" stroke-linecap="round" fill="none"/>
  
  <!-- Bottom-right corner -->
  <path d="M60 60 L60 50 M60 60 L50 60" stroke="#f39c12" stroke-width="4" stroke-linecap="round" fill="none"/>
</svg>