<svg viewBox="0 0 72 72" xmlns="http://www.w3.org/2000/svg">
  <!-- Browser window frame -->
  <rect x="6" y="10" width="60" height="52" rx="3" fill="#2c3e50" stroke="#ecf0f1" stroke-width="2"/>
  
  <!-- Tab bar -->
  <rect x="10" y="14" width="12" height="6" rx="2" fill="#3498db"/>
  <rect x="24" y="14" width="12" height="6" rx="2" fill="#95a5a6"/>
  <rect x="38" y="14" width="12" height="6" rx="2" fill="#95a5a6"/>
  
  <!-- Browser address bar -->
  <rect x="10" y="22" width="52" height="8" rx="2" fill="#34495e"/>
  <rect x="12" y="24" width="36" height="4" rx="1" fill="#ecf0f1"/>
  
  <!-- Window control buttons -->
  <circle cx="54" cy="26" r="2" fill="#2ecc71"/>
  <circle cx="58" cy="26" r="2" fill="#f39c12"/>
  
  <!-- Content area with webpage elements -->
  <rect x="10" y="32" width="52" height="26" fill="#ecf0f1"/>
  
  <!-- Simulated webpage content -->
  <rect x="14" y="36" width="20" height="3" rx="1" fill="#34495e"/>
  <rect x="14" y="42" width="44" height="2" rx="1" fill="#95a5a6"/>
  <rect x="14" y="46" width="36" height="2" rx="1" fill="#95a5a6"/>
  <rect x="14" y="50" width="28" height="2" rx="1" fill="#95a5a6"/>
  
  <!-- F11 indicator -->
  <rect x="8" y="50.5" width="17" height="9" rx="1" fill="#e74c3c"/>
  <text x="16.5" y="58" font-family="Arial, sans-serif" font-size="8" font-weight="bold" text-anchor="middle" fill="white">F11</text>
</svg>