<svg viewBox="0 0 72 72" xmlns="http://www.w3.org/2000/svg">
  <rect x="8" y="6" width="56" height="8" rx="3" fill="#34495e"/>
  <rect x="8" y="12" width="56" height="2" fill="#34495e"/>
  <circle cx="14" cy="10" r="1.5" fill="#f39c12"/>
  <circle cx="18" cy="10" r="1.5" fill="#2ecc71"/>
  <circle cx="22" cy="10" r="1.5" fill="#3498db"/>
  <rect x="28" y="8" width="32" height="4" rx="1" fill="#ecf0f1"/>
  
  <circle cx="36" cy="30" r="10" fill="none" stroke="#3498db" stroke-width="2"/>
  <path d="M36 20 Q46 30 36 40" stroke="#3498db" stroke-width="1.5" fill="none"/>
  <path d="M36 20 Q26 30 36 40" stroke="#3498db" stroke-width="1.5" fill="none"/>
  <line x1="26" y1="30" x2="46" y2="30" stroke="#3498db" stroke-width="1.5"/>
  <line x1="36" y1="20" x2="36" y2="40" stroke="#3498db" stroke-width="1.5"/>
  
  <rect x="14" y="42" width="6" height="3" rx="1" fill="#ecf0f1"/>
  <rect x="22" y="42" width="6" height="3" rx="1" fill="#ecf0f1"/>
  <rect x="52" y="42" width="6" height="3" rx="1" fill="#2ecc71"/>
  <rect x="8" y="6" width="56" height="44" rx="3" fill="none" stroke="#ecf0f1" stroke-width="2"/>
</svg>