<?xml version="1.0" encoding="UTF-8" standalone="no"?>
<svg
   viewBox="0 0 72 72"
   version="1.1"
   id="svg50"
   sodipodi:docname="workspace_monitor.svg"
   inkscape:version="1.2.2 (b0a8486541, 2022-12-01)"
   xmlns:inkscape="http://www.inkscape.org/namespaces/inkscape"
   xmlns:sodipodi="http://sodipodi.sourceforge.net/DTD/sodipodi-0.dtd"
   xmlns="http://www.w3.org/2000/svg"
   xmlns:svg="http://www.w3.org/2000/svg">
  <defs
     id="defs54" />
  <sodipodi:namedview
     id="namedview52"
     pagecolor="#ffffff"
     bordercolor="#000000"
     borderopacity="0.25"
     inkscape:showpageshadow="2"
     inkscape:pageopacity="0.0"
     inkscape:pagecheckerboard="0"
     inkscape:deskcolor="#d1d1d1"
     showgrid="false"
     inkscape:zoom="26.222222"
     inkscape:cx="37.601695"
     inkscape:cy="41.11017"
     inkscape:window-width="3840"
     inkscape:window-height="2128"
     inkscape:window-x="2560"
     inkscape:window-y="0"
     inkscape:window-maximized="1"
     inkscape:current-layer="svg50" />
  <!-- Titelleiste (dunkelgrau) -->
  <rect
     x="8"
     y="6"
     width="56"
     height="8"
     rx="3"
     fill="#34495e"
     id="rect2" />
  <rect
     x="8"
     y="12"
     width="56"
     height="2"
     fill="#34495e"
     id="rect4" />
  <!-- Fensterbuttons (standard Farben, links positioniert) -->
  <circle
     cx="14"
     cy="10"
     r="1.5"
     fill="#f39c12"
     id="circle6" />
  <circle
     cx="18"
     cy="10"
     r="1.5"
     fill="#2ecc71"
     id="circle8" />
  <circle
     cx="22"
     cy="10"
     r="1.5"
     fill="#3498db"
     id="circle10" />
  <!-- Dashboard grid layout -->
  <!-- Top row metrics -->
  <rect
     x="14"
     y="18"
     width="12"
     height="8"
     rx="1"
     fill="#2c3e50"
     id="rect12" />
  <rect
     x="16"
     y="23.389832"
     width="8"
     height="2"
     fill="#2ecc71"
     id="rect14" />
  <text
     x="20"
     y="22.334743"
     fill="#ecf0f1"
     font-family="monospace"
     font-size="4px"
     text-anchor="middle"
     id="text16">CPU</text>
  <rect
     x="28"
     y="18"
     width="12"
     height="8"
     rx="1"
     fill="#2c3e50"
     id="rect18" />
  <rect
     x="30"
     y="23.389832"
     width="8"
     height="2"
     fill="#f39c12"
     id="rect20" />
  <text
     x="34"
     y="22.334743"
     fill="#ecf0f1"
     font-family="monospace"
     font-size="4px"
     text-anchor="middle"
     id="text22">RAM</text>
  <rect
     x="42"
     y="18"
     width="12"
     height="8"
     rx="1"
     fill="#2c3e50"
     id="rect24" />
  <rect
     x="44"
     y="23.389832"
     width="8"
     height="2"
     fill="#3498db"
     id="rect26" />
  <text
     x="48"
     y="22.334743"
     fill="#ecf0f1"
     font-family="monospace"
     font-size="4px"
     text-anchor="middle"
     id="text28">NET</text>
  <!-- Chart visualization -->
  <rect
     x="14"
     y="28"
     width="40"
     height="16"
     rx="1"
     fill="#2c3e50"
     id="rect30" />
  <!-- Line chart -->
  <path
     d="M16 40 L20 36 L24 38 L28 33 L32 35 L36 31 L40 33 L44 30 L48 32 L52 30"
     stroke="#2ecc71"
     stroke-width="1.5"
     fill="none"
     id="path32" />
  <path
     d="M16 42 L20 40 L24 41 L28 38 L32 39 L36 36 L40 38 L44 35 L48 37 L52 35"
     stroke="#3498db"
     stroke-width="1.5"
     fill="none"
     id="path34" />
  <!-- Status indicators -->
  <circle
     cx="18"
     cy="46.411015"
     r="1.5"
     fill="#2ecc71"
     id="circle36" />
  <text
     x="20.275425"
     y="47.911015"
     fill="#ecf0f1"
     font-family="monospace"
     font-size="4px"
     id="text38">OK</text>
  <circle
     cx="27.826275"
     cy="46.411015"
     r="1.5"
     fill="#f39c12"
     id="circle40" />
  <text
     x="30.1017"
     y="47.911015"
     fill="#ecf0f1"
     font-family="monospace"
     font-size="4px"
     id="text42">WARN</text>
  <circle
     cx="42.644073"
     cy="46.411015"
     r="1.5"
     fill="#e74c3c"
     id="circle44" />
  <text
     x="44.65255"
     y="47.911015"
     fill="#ecf0f1"
     font-family="monospace"
     font-size="4px"
     id="text46">ERR</text>
  <!-- Äußerer Rahmen (IMMER als letztes Element!) -->
  <rect
     x="8"
     y="6"
     width="56"
     height="44"
     rx="3"
     fill="none"
     stroke="#ecf0f1"
     stroke-width="2"
     id="rect48" />
</svg>
