<svg viewBox="0 0 72 72" xmlns="http://www.w3.org/2000/svg">
  <rect x="8" y="6" width="56" height="8" rx="3" fill="#34495e"/>
  <rect x="8" y="12" width="56" height="2" fill="#34495e"/>
  <circle cx="14" cy="10" r="1.5" fill="#f39c12"/>
  <circle cx="18" cy="10" r="1.5" fill="#2ecc71"/>
  <circle cx="22" cy="10" r="1.5" fill="#3498db"/>
  
  <rect x="12" y="18" width="24" height="14" rx="2" fill="#34495e" stroke="#ecf0f1" stroke-width="1"/>
  <text x="24" y="24" fill="#ecf0f1" font-family="monospace" font-size="5" font-weight="bold" text-anchor="middle">TELKO</text>
  <rect x="15" y="26" width="6" height="4" rx="1" fill="#3498db"/>
  <rect x="25" y="26" width="6" height="4" rx="1" fill="#2ecc71"/>
  
  <rect x="40" y="18" width="22" height="14" rx="2" fill="#34495e" stroke="#ecf0f1" stroke-width="1"/>
  <text x="51" y="24" fill="#ecf0f1" font-family="monospace" font-size="5" font-weight="bold" text-anchor="middle">SOUND</text>
  <rect x="43" y="26" width="16" height="1.5" rx="1" fill="#ecf0f1"/>
  <rect x="43" y="29" width="16" height="1.5" rx="1" fill="#ecf0f1"/>
  <rect x="48" y="26" width="3" height="1.5" rx="1" fill="#2ecc71"/>
  <rect x="53" y="29" width="3" height="1.5" rx="1" fill="#f39c12"/>
  
  <rect x="12" y="36" width="50" height="12" rx="2" fill="#34495e" stroke="#ecf0f1" stroke-width="1"/>
  <text x="37" y="41" fill="#ecf0f1" font-family="monospace" font-size="5" font-weight="bold" text-anchor="middle">TOOLS</text>
  
  <rect x="15" y="43" width="6" height="3" rx="1" fill="#3498db"/>
  <rect x="23" y="43" width="6" height="3" rx="1" fill="#2ecc71"/>
  <rect x="31" y="43" width="6" height="3" rx="1" fill="#f39c12"/>
  <rect x="39" y="43" width="6" height="3" rx="1" fill="#e74c3c"/>
  <rect x="47" y="43" width="6" height="3" rx="1" fill="#9b59b6"/>
  
  <circle cx="18" cy="44.5" r="0.5" fill="#ffffff"/>
  <rect x="17.5" y="43.5" width="1" height="0.5" fill="#ffffff"/>
  <rect x="8" y="6" width="56" height="44" rx="3" fill="none" stroke="#ecf0f1" stroke-width="2"/>
</svg>